<?xml version="1.0" encoding="UTF-8" standalone="no"?>
<!-- Created with Inkscape (http://www.inkscape.org/) -->

<svg
   width="226.22072mm"
   height="226.22072mm"
   viewBox="0 0 226.22072 226.22072"
   version="1.1"
   id="svg1"
   xml:space="preserve"
   xmlns="http://www.w3.org/2000/svg"
   xmlns:svg="http://www.w3.org/2000/svg"><defs
     id="defs1" /><g
     id="layer1"
     transform="translate(8.1103622,44.875308)"><g
       id="g13"><circle
         style="font-variation-settings:normal;opacity:1;fill:none;fill-opacity:1;fill-rule:evenodd;stroke:#befaf3;stroke-width:1.4;stroke-linecap:butt;stroke-linejoin:miter;stroke-miterlimit:4;stroke-dasharray:none;stroke-dashoffset:0;stroke-opacity:0.8;stop-color:#000000;stop-opacity:1"
         id="path1"
         cx="105"
         cy="68.235054"
         r="112.41036" /><path
         style="fill:#98c8c3;fill-opacity:1;stroke:none;stroke-width:0.264583px;stroke-linecap:butt;stroke-linejoin:miter;stroke-opacity:1"
         d="m 26.475046,10.856526 c -1.74627,-0.9091191 -11.728703,8.742916 -11.1079,14.519452 0.416633,3.876754 2.791057,-1.003768 5.422064,-5.604213 2.672854,-4.673614 7.432108,-8.006118 5.685836,-8.915239 z"
         id="path13-9" /><path
         style="fill:#98c8c3;fill-opacity:1;stroke:none;stroke-width:0.264583px;stroke-linecap:butt;stroke-linejoin:miter;stroke-opacity:1"
         d="M 55.802093,-18.34948 C 53.730941,-20.74041 33.554952,-8.9154405 32.577558,1.3251983 31.952051,7.8789418 38.557769,-2.2648976 43.200682,-6.7160944 50.398784,-13.616969 57.873244,-15.958552 55.802093,-18.34948 Z"
         id="path13-9-8" /><path
         style="fill:#98c8c3;fill-opacity:1;stroke:none;stroke-width:0.264583px;stroke-linecap:butt;stroke-linejoin:miter;stroke-opacity:1"
         d="m 170.42049,139.77581 c 2.12863,2.07948 19.19266,-10.52632 20.23395,-20.26075 0.69884,-6.53297 -4.21222,0.72882 -9.38773,7.44345 -5.25783,6.82141 -12.97485,10.73783 -10.84622,12.8173 z"
         id="path13-9-8-3" /></g></g></svg>
